<svg width="120" height="112" viewBox="0 0 120 112" fill="none" xmlns="http://www.w3.org/2000/svg">
<path d="M91.0201 84.6327H58.2029L91.0201 111.004V84.6327Z" fill="#5F5F5F"/>
<path d="M0.772736 11.0036C0.772736 6.03304 4.80217 2.0036 9.77274 2.0036H110.773C115.743 2.0036 119.773 6.03304 119.773 11.0036V76.0036C119.773 80.9742 115.743 85.0036 110.773 85.0036H9.77273C4.80217 85.0036 0.772736 80.9742 0.772736 76.0036V11.0036Z" fill="#5F5F5F"/>
<path d="M91.0201 82.6327H58.2029L91.0201 109.004V82.6327Z" fill="#7F7F7F"/>
<rect x="0.772736" y="0.00360107" width="119" height="83" rx="9" fill="#7F7F7F"/>
<rect x="15.8372" y="20.0036" width="87.9032" height="5.86022" fill="#C4C4C4"/>
<rect x="15.7727" y="39.595" width="87.9032" height="5.86022" fill="#C4C4C4"/>
<rect x="15.8372" y="57.509" width="71.4946" height="5.86022" fill="#C4C4C4"/>
</svg>
