<svg width="152" height="86" viewBox="0 0 152 86" fill="none" xmlns="http://www.w3.org/2000/svg">
<path d="M101.709 60.4207V24.7761C101.709 23.9284 102.182 23.1515 102.935 22.7624L142.034 2.56123C142.743 2.19465 143.53 2.00336 144.329 2.00336H146.231C147.75 2.00336 149.187 2.69381 150.136 3.87988L150.299 4.0842C151.008 4.97077 151.395 6.07232 151.395 7.20768V80.7912C151.395 82.0409 150.898 83.2395 150.015 84.1232C149.131 85.0069 147.932 85.5034 146.683 85.5034H144.364C143.543 85.5034 142.735 85.3013 142.011 84.9151L104.356 64.8325C102.726 63.9635 101.709 62.2673 101.709 60.4207Z" fill="#5F5F5F"/>
<path d="M1.73297 14.0797L0.90112 16.9912C0.77349 17.4379 0.70874 17.9002 0.70874 18.3648V71.2181C0.70874 71.8542 0.830116 72.4845 1.06636 73.0751L1.70775 74.6786C1.95923 75.3073 2.3358 75.8783 2.8146 76.3572L4.41399 77.9565C4.70306 78.2456 5.0265 78.4981 5.37705 78.7085L7.11209 79.7495C7.88917 80.2158 8.77835 80.462 9.68457 80.462H86.9643C87.8705 80.462 88.7597 80.2158 89.5368 79.7495L91.2718 78.7085C91.6224 78.4981 91.9458 78.2456 92.2349 77.9565L93.8343 76.3572C94.3131 75.8783 94.6897 75.3073 94.9411 74.6786L95.5825 73.0751C95.8188 72.4845 95.9401 71.8542 95.9401 71.2181V18.3648C95.9401 17.9002 95.8754 17.4379 95.7478 16.9912L94.9159 14.0797C94.6825 13.2627 94.2447 12.5186 93.6438 11.9178L92.2349 10.5088C91.9458 10.2198 91.6224 9.96725 91.2718 9.75692L89.5368 8.71589C88.7597 8.24965 87.8705 8.00336 86.9643 8.00336H9.68457C8.77835 8.00336 7.88917 8.24965 7.11209 8.71589L5.37705 9.75692C5.0265 9.96725 4.70306 10.2198 4.41399 10.5088L3.00505 11.9178C2.40421 12.5186 1.96641 13.2627 1.73297 14.0797Z" fill="#5F5F5F"/>
<path d="M1.73297 11.6004L0.90112 14.5118C0.77349 14.9586 0.70874 15.4209 0.70874 15.8855V68.7388C0.70874 69.3749 0.830116 70.0051 1.06636 70.5957L1.70775 72.1992C1.95923 72.8279 2.3358 73.399 2.8146 73.8778L4.41399 75.4772C4.70306 75.7663 5.0265 76.0188 5.37705 76.2291L7.11209 77.2702C7.88917 77.7364 8.77835 77.9827 9.68457 77.9827H86.9643C87.8705 77.9827 88.7597 77.7364 89.5368 77.2702L91.2718 76.2291C91.6224 76.0188 91.9458 75.7663 92.2349 75.4772L93.8343 73.8778C94.3131 73.399 94.6897 72.8279 94.9411 72.1992L95.5825 70.5957C95.8188 70.0051 95.9401 69.3749 95.9401 68.7388V15.8854C95.9401 15.4209 95.8754 14.9586 95.7478 14.5118L94.9159 11.6004C94.6825 10.7833 94.2447 10.0393 93.6438 9.43845L92.2349 8.02951C91.9458 7.74044 91.6224 7.48791 91.2718 7.27758L89.5368 6.23655C88.7597 5.77031 87.8705 5.52402 86.9643 5.52402H9.68457C8.77835 5.52402 7.88917 5.77031 7.11209 6.23655L5.37705 7.27758C5.0265 7.48791 4.70306 7.74044 4.41399 8.02951L3.00505 9.43845C2.40421 10.0393 1.96641 10.7833 1.73297 11.6004Z" fill="#808080"/>
<path d="M101.461 58.4207V22.7761C101.461 21.9284 101.934 21.1515 102.687 20.7624L141.786 0.561227C142.496 0.194651 143.283 0.00335693 144.081 0.00335693H145.983C147.502 0.00335693 148.939 0.693805 149.888 1.87988L150.051 2.0842C150.76 2.97077 151.147 4.07232 151.147 5.20768V78.7912C151.147 80.0409 150.65 81.2395 149.767 82.1232C148.883 83.0069 147.684 83.5034 146.435 83.5034H144.116C143.295 83.5034 142.487 83.3013 141.763 82.9151L104.108 62.8325C102.479 61.9635 101.461 60.2673 101.461 58.4207Z" fill="#7F7F7F"/>
</svg>
